{
	"asset":{
		"generator":"Khronos glTF Blender I/O v5.2.40",
		"version":"2.0"
	},
	"scene":0,
	"scenes":[
		{
			"extras":{
				"liberty_exporter":"0.5.0",
				"liberty_blender":"5.2.2 LTS",
				"liberty_source":"unsaved"
			},
			"name":"lf_lod_post",
			"nodes":[
				0,
				1,
				2,
				3
			]
		}
	],
	"nodes":[
		{
			"mesh":0,
			"name":"lf_lod_post"
		},
		{
			"mesh":1,
			"name":"lf_lod_post_lod1"
		},
		{
			"mesh":2,
			"name":"lf_lod_post_lod2"
		},
		{
			"mesh":3,
			"name":"lf_lod_post_lod3"
		}
	],
	"materials":[
		{
			"doubleSided":true,
			"name":"lf_lod_post",
			"pbrMetallicRoughness":{
				"baseColorTexture":{
					"index":0
				},
				"metallicFactor":0,
				"roughnessFactor":0.5
			}
		}
	],
	"meshes":[
		{
			"name":"lf_lod_post",
			"primitives":[
				{
					"attributes":{
						"POSITION":0,
						"NORMAL":1,
						"TEXCOORD_0":2
					},
					"indices":3,
					"material":0
				}
			]
		},
		{
			"name":"lf_lod_post_lod1",
			"primitives":[
				{
					"attributes":{
						"POSITION":4,
						"NORMAL":5,
						"TEXCOORD_0":6
					},
					"indices":7,
					"material":0
				}
			]
		},
		{
			"name":"lf_lod_post_lod2",
			"primitives":[
				{
					"attributes":{
						"POSITION":8,
						"NORMAL":9,
						"TEXCOORD_0":10
					},
					"indices":11,
					"material":0
				}
			]
		},
		{
			"name":"lf_lod_post_lod3",
			"primitives":[
				{
					"attributes":{
						"POSITION":12,
						"NORMAL":13,
						"TEXCOORD_0":14
					},
					"indices":15,
					"material":0
				}
			]
		}
	],
	"textures":[
		{
			"sampler":0,
			"source":0
		}
	],
	"images":[
		{
			"mimeType":"image/png",
			"name":"lf_lod_post_basecolor",
			"uri":"lf_lod_post_basecolor.png"
		}
	],
	"accessors":[
		{
			"bufferView":0,
			"componentType":5126,
			"count":194,
			"max":[
				0.4000000059604645,
				3,
				0.4000000059604645
			],
			"min":[
				-0.4000000059604645,
				0,
				-0.4000000059604645
			],
			"type":"VEC3"
		},
		{
			"bufferView":1,
			"componentType":5126,
			"count":194,
			"type":"VEC3"
		},
		{
			"bufferView":2,
			"componentType":5126,
			"count":194,
			"type":"VEC2"
		},
		{
			"bufferView":3,
			"componentType":5123,
			"count":564,
			"type":"SCALAR"
		},
		{
			"bufferView":4,
			"componentType":5126,
			"count":98,
			"max":[
				0.4000000059604645,
				3,
				0.4000000059604645
			],
			"min":[
				-0.4000000059604645,
				0,
				-0.4000000059604645
			],
			"type":"VEC3"
		},
		{
			"bufferView":5,
			"componentType":5126,
			"count":98,
			"type":"VEC3"
		},
		{
			"bufferView":6,
			"componentType":5126,
			"count":98,
			"type":"VEC2"
		},
		{
			"bufferView":7,
			"componentType":5123,
			"count":276,
			"type":"SCALAR"
		},
		{
			"bufferView":8,
			"componentType":5126,
			"count":50,
			"max":[
				0.4000000059604645,
				3,
				0.4000000059604645
			],
			"min":[
				-0.4000000059604645,
				0,
				-0.4000000059604645
			],
			"type":"VEC3"
		},
		{
			"bufferView":9,
			"componentType":5126,
			"count":50,
			"type":"VEC3"
		},
		{
			"bufferView":10,
			"componentType":5126,
			"count":50,
			"type":"VEC2"
		},
		{
			"bufferView":11,
			"componentType":5123,
			"count":132,
			"type":"SCALAR"
		},
		{
			"bufferView":12,
			"componentType":5126,
			"count":26,
			"max":[
				0.4000000059604645,
				3,
				0.3464101552963257
			],
			"min":[
				-0.4000000059604645,
				0,
				-0.3464101552963257
			],
			"type":"VEC3"
		},
		{
			"bufferView":13,
			"componentType":5126,
			"count":26,
			"type":"VEC3"
		},
		{
			"bufferView":14,
			"componentType":5126,
			"count":26,
			"type":"VEC2"
		},
		{
			"bufferView":15,
			"componentType":5123,
			"count":60,
			"type":"SCALAR"
		}
	],
	"bufferViews":[
		{
			"buffer":0,
			"byteLength":2328,
			"byteOffset":0,
			"target":34962
		},
		{
			"buffer":0,
			"byteLength":2328,
			"byteOffset":2328,
			"target":34962
		},
		{
			"buffer":0,
			"byteLength":1552,
			"byteOffset":4656,
			"target":34962
		},
		{
			"buffer":0,
			"byteLength":1128,
			"byteOffset":6208,
			"target":34963
		},
		{
			"buffer":0,
			"byteLength":1176,
			"byteOffset":7336,
			"target":34962
		},
		{
			"buffer":0,
			"byteLength":1176,
			"byteOffset":8512,
			"target":34962
		},
		{
			"buffer":0,
			"byteLength":784,
			"byteOffset":9688,
			"target":34962
		},
		{
			"buffer":0,
			"byteLength":552,
			"byteOffset":10472,
			"target":34963
		},
		{
			"buffer":0,
			"byteLength":600,
			"byteOffset":11024,
			"target":34962
		},
		{
			"buffer":0,
			"byteLength":600,
			"byteOffset":11624,
			"target":34962
		},
		{
			"buffer":0,
			"byteLength":400,
			"byteOffset":12224,
			"target":34962
		},
		{
			"buffer":0,
			"byteLength":264,
			"byteOffset":12624,
			"target":34963
		},
		{
			"buffer":0,
			"byteLength":312,
			"byteOffset":12888,
			"target":34962
		},
		{
			"buffer":0,
			"byteLength":312,
			"byteOffset":13200,
			"target":34962
		},
		{
			"buffer":0,
			"byteLength":208,
			"byteOffset":13512,
			"target":34962
		},
		{
			"buffer":0,
			"byteLength":120,
			"byteOffset":13720,
			"target":34963
		}
	],
	"samplers":[
		{
			"magFilter":9729,
			"minFilter":9987
		}
	],
	"buffers":[
		{
			"byteLength":13840,
			"uri":"lf_lod_post.bin"
		}
	]
}
