{
	"asset":{
		"generator":"Khronos glTF Blender I/O v5.2.40",
		"version":"2.0"
	},
	"scene":0,
	"scenes":[
		{
			"extras":{
				"liberty_exporter":"0.1.0",
				"liberty_blender":"5.2.2 LTS",
				"liberty_source":"lf_blender_barrel.blend"
			},
			"name":"lf_blender_barrel",
			"nodes":[
				0,
				1
			]
		}
	],
	"nodes":[
		{
			"mesh":0,
			"name":"lf_blender_barrel"
		},
		{
			"mesh":1,
			"name":"lf_blender_barrel_lod1"
		}
	],
	"materials":[
		{
			"doubleSided":true,
			"name":"lf_blender_barrel",
			"pbrMetallicRoughness":{
				"baseColorTexture":{
					"index":0
				},
				"metallicFactor":0.30000001192092896,
				"roughnessFactor":0.550000011920929
			}
		}
	],
	"meshes":[
		{
			"name":"lf_blender_barrel",
			"primitives":[
				{
					"attributes":{
						"POSITION":0,
						"NORMAL":1,
						"TEXCOORD_0":2
					},
					"indices":3,
					"material":0
				}
			]
		},
		{
			"name":"lf_blender_barrel_lod1",
			"primitives":[
				{
					"attributes":{
						"POSITION":4,
						"NORMAL":5,
						"TEXCOORD_0":6
					},
					"indices":7,
					"material":0
				}
			]
		}
	],
	"textures":[
		{
			"sampler":0,
			"source":0
		}
	],
	"images":[
		{
			"mimeType":"image/png",
			"name":"lf_blender_barrel_basecolor",
			"uri":"lf_blender_barrel_basecolor.png"
		}
	],
	"accessors":[
		{
			"bufferView":0,
			"componentType":5126,
			"count":350,
			"max":[
				0.3009999990463257,
				0.8799999952316284,
				0.3009999990463257
			],
			"min":[
				-0.3009999990463257,
				0,
				-0.3009999990463257
			],
			"type":"VEC3"
		},
		{
			"bufferView":1,
			"componentType":5126,
			"count":350,
			"type":"VEC3"
		},
		{
			"bufferView":2,
			"componentType":5126,
			"count":350,
			"type":"VEC2"
		},
		{
			"bufferView":3,
			"componentType":5123,
			"count":1728,
			"type":"SCALAR"
		},
		{
			"bufferView":4,
			"componentType":5126,
			"count":44,
			"max":[
				0.28600001335144043,
				0.8799999952316284,
				0.2720021605491638
			],
			"min":[
				-0.28600001335144043,
				0,
				-0.2720021605491638
			],
			"type":"VEC3"
		},
		{
			"bufferView":5,
			"componentType":5126,
			"count":44,
			"type":"VEC3"
		},
		{
			"bufferView":6,
			"componentType":5126,
			"count":44,
			"type":"VEC2"
		},
		{
			"bufferView":7,
			"componentType":5123,
			"count":120,
			"type":"SCALAR"
		}
	],
	"bufferViews":[
		{
			"buffer":0,
			"byteLength":4200,
			"byteOffset":0,
			"target":34962
		},
		{
			"buffer":0,
			"byteLength":4200,
			"byteOffset":4200,
			"target":34962
		},
		{
			"buffer":0,
			"byteLength":2800,
			"byteOffset":8400,
			"target":34962
		},
		{
			"buffer":0,
			"byteLength":3456,
			"byteOffset":11200,
			"target":34963
		},
		{
			"buffer":0,
			"byteLength":528,
			"byteOffset":14656,
			"target":34962
		},
		{
			"buffer":0,
			"byteLength":528,
			"byteOffset":15184,
			"target":34962
		},
		{
			"buffer":0,
			"byteLength":352,
			"byteOffset":15712,
			"target":34962
		},
		{
			"buffer":0,
			"byteLength":240,
			"byteOffset":16064,
			"target":34963
		}
	],
	"samplers":[
		{
			"magFilter":9729,
			"minFilter":9987
		}
	],
	"buffers":[
		{
			"byteLength":16304,
			"uri":"lf_blender_barrel.bin"
		}
	]
}
